<svg width="40" height="41" viewBox="0 0 40 41" fill="none" xmlns="http://www.w3.org/2000/svg">
<path d="M26 19V27.625C26 27.8712 25.9515 28.115 25.8573 28.3425C25.763 28.57 25.6249 28.7767 25.4508 28.9508C25.2767 29.1249 25.07 29.263 24.8425 29.3573C24.615 29.4515 24.3712 29.5 24.125 29.5H12.875C12.3777 29.5 11.9008 29.3025 11.5492 28.9508C11.1975 28.5992 11 28.1223 11 27.625V16.375C11 15.8777 11.1975 15.4008 11.5492 15.0492C11.9008 14.6975 12.3777 14.5 12.875 14.5H20.7256" stroke="black" stroke-width="2" stroke-linecap="round" stroke-linejoin="round"/>
<path d="M29.5597 10.9961C29.4912 10.9208 29.4082 10.8603 29.3156 10.818C29.2231 10.7757 29.1229 10.7527 29.0211 10.7502C28.9194 10.7478 28.8182 10.766 28.7237 10.8037C28.6292 10.8415 28.5434 10.898 28.4713 10.9699L27.8915 11.5469C27.8212 11.6172 27.7817 11.7126 27.7817 11.812C27.7817 11.9114 27.8212 12.0067 27.8915 12.077L28.423 12.6077C28.4579 12.6427 28.4993 12.6705 28.5449 12.6894C28.5905 12.7084 28.6394 12.7181 28.6888 12.7181C28.7382 12.7181 28.7871 12.7084 28.8327 12.6894C28.8783 12.6705 28.9197 12.6427 28.9546 12.6077L29.5199 12.0452C29.8058 11.7597 29.8326 11.2947 29.5597 10.9961ZM26.7191 12.7188L18.2572 21.1656C18.2059 21.2167 18.1686 21.2802 18.149 21.3499L17.7576 22.5156C17.7482 22.5473 17.7475 22.5808 17.7556 22.6128C17.7638 22.6448 17.7804 22.674 17.8037 22.6973C17.827 22.7207 17.8562 22.7373 17.8882 22.7454C17.9202 22.7535 17.9537 22.7528 17.9854 22.7435L19.1502 22.352C19.2199 22.3324 19.2833 22.2951 19.3344 22.2438L27.7813 13.781C27.8595 13.702 27.9033 13.5953 27.9033 13.4842C27.9033 13.3731 27.8595 13.2665 27.7813 13.1875L27.3149 12.7188C27.2358 12.6399 27.1287 12.5956 27.017 12.5956C26.9053 12.5956 26.7982 12.6399 26.7191 12.7188Z" fill="black"/>
</svg>
