<svg width="40" height="41" viewBox="0 0 40 41" fill="none" xmlns="http://www.w3.org/2000/svg">
<path d="M19.9841 13.75C16.3307 13.75 12.583 15.8645 9.6327 20.0936C9.54849 20.2156 9.50234 20.3599 9.50009 20.5082C9.49783 20.6564 9.53958 20.802 9.62004 20.9266C11.8869 24.475 15.5844 27.25 19.9841 27.25C24.336 27.25 28.1094 24.4666 30.3805 20.9102C30.4591 20.7881 30.5009 20.6459 30.5009 20.5007C30.5009 20.3555 30.4591 20.2134 30.3805 20.0912C28.1043 16.5756 24.3032 13.75 19.9841 13.75Z" stroke="black" stroke-width="2" stroke-linecap="round" stroke-linejoin="round"/>
<path d="M20 24.25C22.0711 24.25 23.75 22.5711 23.75 20.5C23.75 18.4289 22.0711 16.75 20 16.75C17.9289 16.75 16.25 18.4289 16.25 20.5C16.25 22.5711 17.9289 24.25 20 24.25Z" stroke="black" stroke-width="2" stroke-miterlimit="10"/>
</svg>
